<svg width="25" height="25" xmlns="http://www.w3.org/2000/svg"><path d="M24.66 12.434C23.03.77 21.612 0 12.506 0 3.386 0 1.967.767.34 12.42c-.71 5.082-.321 8.045 1.3 9.909C3.586 24.563 7.093 25 12.493 25c5.41 0 8.922-.438 10.868-2.674 1.62-1.861 2.01-4.819 1.3-9.892Zm-2.915 8.486c-1.404 1.614-4.58 1.937-9.25 1.937-4.662 0-7.833-.323-9.236-1.936-1.158-1.329-1.403-3.86-.796-8.206C3.94 2.143 4.424 2.143 12.507 2.143c8.067 0 8.55 0 10.031 10.588.606 4.337.362 6.862-.793 8.188Z"/><path d="M16.073 5a1.072 1.072 0 0 0-1.072 1.072 2.5 2.5 0 0 1-2.501 2.5 2.502 2.502 0 0 1-2.501-2.5 1.071 1.071 0 0 0-2.144 0 4.642 4.642 0 0 0 4.645 4.642 4.646 4.646 0 0 0 4.645-4.643 1.071 1.071 0 0 0-1.072-1.07Z"/></svg>