<svg style="stroke: rgb(255,255,255);" class="service_icon" width="35" height="35" viewBox="0 0 35 35" fill="none" xmlns="http://www.w3.org/2000/svg">
                <path d="M19.5265 27.4912H33.0854V1.8655H7.45974V15.0349" stroke-width="2" stroke-miterlimit="22.926" stroke-linecap="round" stroke-linejoin="round"></path>
                <path d="M23.9375 1.86624H16.6066V8.29297L20.2721 6.43014L23.9375 8.29297V1.86624Z" stroke-width="2" stroke-miterlimit="22.926" stroke-linecap="round" stroke-linejoin="round"></path>
                <path d="M20.272 23.9063C20.272 18.8095 16.1402 14.6778 11.0435 14.6778C5.94675 14.6778 1.81498 18.8095 1.81498 23.9063C1.81498 29.0031 5.94675 33.1348 11.0435 33.1348C16.1402 33.1348 20.272 29.0031 20.272 23.9063Z" stroke-width="2" stroke-miterlimit="22.926" stroke-linecap="round" stroke-linejoin="round"></path>
                <path d="M14.1431 27.2314H9.602C8.06536 27.2314 6.81217 25.9783 6.81217 24.4416V24.3771C6.81217 22.8405 8.06536 21.5873 9.602 21.5873H12.9753" stroke-width="2" stroke-miterlimit="22.926" stroke-linecap="round" stroke-linejoin="round"></path>
                <path d="M12.4219 19.3574L14.6538 21.5933L12.4178 23.8252" stroke-width="2" stroke-miterlimit="22.926" stroke-linecap="round" stroke-linejoin="round"></path>
            </svg>