<svg width="41" height="41" xmlns="http://www.w3.org/2000/svg"><path fill-rule="evenodd" clip-rule="evenodd" d="M0 23.11a1.05 1.05 0 0 1 1.052-1.046h25.93a1.05 1.05 0 0 1 1.053 1.047v9.032a1.05 1.05 0 0 1-1.052 1.046H12.72a1.05 1.05 0 0 1-1.052-1.046 1.05 1.05 0 0 1 1.052-1.047h13.21v-6.939H2.104v5.405c0 .407.162.797.451 1.084.289.288.68.45 1.09.45H4.94c.581 0 1.052.468 1.052 1.046a1.05 1.05 0 0 1-1.051 1.047H3.645a3.653 3.653 0 0 1-2.577-1.061A3.617 3.617 0 0 1 0 29.562v-6.451Z"/><path fill-rule="evenodd" clip-rule="evenodd" d="M1.068 5.062A3.654 3.654 0 0 1 3.645 4H24.39c.966 0 1.893.383 2.576 1.062m-25.898 0A3.618 3.618 0 0 0 0 7.627v15.484h1.052H0a1.05 1.05 0 0 0 1.052 1.046h25.93a1.05 1.05 0 0 0 1.053-1.046V7.627c0-.96-.384-1.884-1.069-2.565M2.104 22.064H25.93V7.627c0-.406-.163-.796-.451-1.083a1.546 1.546 0 0 0-1.09-.45H3.645c-.408 0-.8.161-1.09.45a1.53 1.53 0 0 0-.451 1.083v14.437ZM1.068 5.062Z"/><path fill-rule="evenodd" clip-rule="evenodd" d="M25.93 12.789c0-.579.472-1.047 1.053-1.047h6.482c4.162 0 7.535 3.357 7.535 7.498v10.322c0 .962-.383 1.885-1.068 2.565a3.653 3.653 0 0 1-2.577 1.063h-2.593a1.05 1.05 0 0 1-1.052-1.047 1.05 1.05 0 0 1 1.052-1.047h2.593c.41 0 .8-.162 1.09-.449a1.53 1.53 0 0 0 .451-1.085V19.24c0-2.984-2.431-5.404-5.43-5.404h-5.431v18.307a1.05 1.05 0 0 1-1.052 1.046c-.581 0-1.052-.468-1.052-1.046V12.789ZM8.831 29.319a2.83 2.83 0 0 0-2.838 2.823c0 1.56 1.27 2.825 2.838 2.825a2.831 2.831 0 0 0 2.838-2.824 2.83 2.83 0 0 0-2.838-2.824ZM3.89 32.143c0-2.716 2.212-4.918 4.941-4.918 2.73 0 4.942 2.202 4.942 4.918S11.56 37.06 8.83 37.06 3.89 34.86 3.89 32.143Z"/><path fill-rule="evenodd" clip-rule="evenodd" d="M30.872 29.319a2.83 2.83 0 0 0-2.837 2.824c0 1.56 1.27 2.824 2.837 2.824a2.83 2.83 0 0 0 2.838-2.824 2.83 2.83 0 0 0-2.838-2.824Zm-4.941 2.824c0-2.716 2.212-4.918 4.941-4.918 2.73 0 4.942 2.202 4.942 4.918s-2.212 4.917-4.942 4.917c-2.729 0-4.941-2.201-4.941-4.917ZM33.465 11.742a1.05 1.05 0 0 1 1.052 1.047v9.275h5.43A1.05 1.05 0 0 1 41 23.111a1.05 1.05 0 0 1-1.052 1.047h-6.483a1.05 1.05 0 0 1-1.052-1.047V12.789a1.05 1.05 0 0 1 1.052-1.047Z"/></svg>