<svg style="fill:#fff" class="icon icon-remove" width="16" height="16" fill="none" xmlns="http://www.w3.org/2000/svg"><path fill-rule="evenodd" clip-rule="evenodd" d="M2.072 5.347c-.145-.042-.348-.05-1.072-.05a.75.75 0 0 1 0-1.5 122.64 122.64 0 0 0 .305 0h13.39a69.203 69.203 0 0 1 .305 0 .75.75 0 0 1 0 1.5c-.724 0-.927.008-1.072.05-.41.12-.73.44-.85.85-.043.146-.05.348-.05 1.073v3.782c0 .899 0 1.648-.08 2.242-.085.628-.27 1.195-.726 1.65-.455.456-1.022.642-1.65.726-.595.08-1.344.08-2.242.08h-.66c-.898 0-1.647 0-2.242-.08-.628-.084-1.195-.27-1.65-.725-.456-.456-.641-1.023-.726-1.65-.08-.595-.08-1.345-.08-2.243V7.27c0-.725-.007-.927-.05-1.072a1.25 1.25 0 0 0-.85-.85Zm9.756-.05H4.172c.078.153.142.313.19.48.111.38.11.82.11 1.387V11c0 .964.002 1.612.067 2.095.062.461.169.659.3.789.13.13.327.237.789.3.483.064 1.13.066 2.094.066h.556c.964 0 1.611-.002 2.094-.066.462-.063.66-.17.79-.3.13-.13.237-.328.3-.79.064-.482.066-1.13.066-2.094V7.164c0-.568-.001-1.007.11-1.386.049-.168.113-.328.19-.48ZM10.01.846C9.578.52 8.93.25 8 .25c-.931 0-1.58.27-2.01.597-.21.16-.357.324-.455.459a1.776 1.776 0 0 0-.158.261l-.005.01-.002.005v.002l-.001.001.686.302-.687-.301a.75.75 0 0 0 1.362.628.75.75 0 0 1 .168-.174c.153-.116.477-.29 1.102-.29.624 0 .949.174 1.101.29a.75.75 0 0 1 .168.174.75.75 0 0 0 1.362-.628l-.687.3.687-.301v-.001l-.002-.002-.002-.005-.004-.01a1.035 1.035 0 0 0-.045-.087 1.776 1.776 0 0 0-.113-.174 2.243 2.243 0 0 0-.456-.46Z"/></svg>