<svg width="21" height="25" class="icon icon-account" xmlns="http://www.w3.org/2000/svg"><path fill-rule="evenodd" clip-rule="evenodd" d="M10.474 1.973c-2.428 0-4.334 1.91-4.334 4.193 0 2.282 1.906 4.192 4.334 4.192 2.427 0 4.334-1.91 4.334-4.192S12.9 1.973 10.474 1.973ZM4.19 6.166C4.19 2.726 7.037 0 10.474 0s6.284 2.727 6.284 6.166c0 3.438-2.847 6.165-6.284 6.165S4.19 9.604 4.19 6.166ZM14.077 15.728a21.891 21.891 0 0 0-7.206 0l-.281.047c-2.605.434-4.563 2.796-4.563 5.618 0 .89.683 1.556 1.457 1.556h13.98c.773 0 1.456-.665 1.456-1.556 0-2.822-1.958-5.184-4.562-5.618l-.281-.047Zm.33-2.023.28.046c3.63.606 6.26 3.865 6.26 7.642 0 1.96-1.529 3.607-3.484 3.607H3.484C1.53 25 0 23.353 0 21.393c0-3.777 2.63-7.036 6.26-7.642l.28-.046a23.886 23.886 0 0 1 7.867 0Z"/></svg>